<?xml version="1.0" standalone="no"?>
<!DOCTYPE svg PUBLIC "-//W3C//DTD SVG 20010904//EN"
 "http://www.w3.org/TR/2001/REC-SVG-20010904/DTD/svg10.dtd">
<svg version="1.0" xmlns="http://www.w3.org/2000/svg"
 width="550.000000pt" height="150.000000pt" viewBox="0 0 550.000000 150.000000"
 preserveAspectRatio="xMidYMid meet">

<g transform="translate(0.000000,150.000000) scale(0.100000,-0.100000)"
fill="#000000" stroke="none">
<path d="M0 750 l0 -750 2750 0 2750 0 0 750 0 750 -2750 0 -2750 0 0 -750z
m4592 376 l106 -111 111 110 111 110 90 -90 c49 -49 90 -92 90 -96 0 -3 -41
-9 -92 -13 -50 -4 -95 -9 -100 -12 -4 -3 -8 -37 -8 -77 l0 -71 -312 -313
c-172 -172 -313 -311 -315 -309 -2 1 56 132 127 290 72 158 130 293 130 299 0
7 -89 101 -197 210 l-198 199 175 -7 175 -7 107 -112z m-1776 -190 c8 -34 -2
-46 -39 -46 -80 -1 -137 -29 -137 -67 0 -11 4 -11 22 1 34 24 92 20 124 -7 20
-18 28 -35 31 -73 9 -91 -39 -144 -130 -144 -81 0 -127 60 -127 165 0 104 43
161 138 181 91 20 111 18 118 -10z m-2314 -72 l3 -76 55 76 c54 74 56 75 99
76 l43 0 -27 -37 c-16 -21 -44 -57 -62 -80 -21 -26 -31 -48 -27 -55 4 -7 34
-48 66 -90 l59 -78 -45 0 c-45 0 -46 0 -106 82 l-60 82 0 -82 0 -82 -40 0 -40
0 0 170 0 170 40 0 39 0 3 -76z m1473 -50 l39 -127 41 124 42 124 51 3 52 3 0
-170 0 -171 -35 0 -35 0 -1 118 -1 117 -40 -117 -40 -118 -37 0 -37 0 -36 118
-37 117 0 -117 -1 -118 -35 0 -35 0 0 170 0 170 53 0 53 0 39 -126z m-1159
-36 l27 -83 27 80 27 80 41 3 c23 2 42 2 42 0 0 -2 -27 -73 -60 -158 -68 -178
-93 -210 -160 -210 -38 0 -40 2 -40 30 0 25 4 30 24 30 29 0 56 24 56 50 0 11
-22 73 -49 140 l-50 120 44 0 43 0 28 -82z m444 -48 l0 -130 -40 0 -40 0 0
100 0 100 -45 0 -45 0 0 -100 0 -100 -40 0 -40 0 0 130 0 130 125 0 125 0 0
-130z m140 48 l0 -83 55 83 55 82 45 0 45 0 0 -130 0 -130 -41 0 -42 0 6 80
c4 44 5 80 3 80 -2 0 -27 -36 -56 -80 l-53 -80 -48 0 -49 0 0 130 0 130 40 0
40 0 0 -82z m1060 67 c38 -19 60 -63 60 -115 0 -83 -49 -130 -135 -130 -93 0
-153 104 -110 194 10 20 29 43 44 51 34 19 105 19 141 0z m607 -9 c26 -23 28
-28 31 -130 l4 -106 -31 0 c-19 0 -34 6 -38 15 -5 14 -8 14 -29 0 -26 -17 -86
-20 -114 -5 -26 14 -42 65 -30 96 12 30 64 54 120 54 34 0 41 3 38 18 -3 14
-14 17 -61 17 -54 0 -76 11 -77 37 0 12 55 26 107 27 41 1 58 -4 80 -23z m288
12 c3 -3 3 -18 -1 -32 -6 -25 -9 -27 -50 -20 -59 8 -74 -5 -74 -66 0 -69 19
-79 110 -58 22 5 26 -43 4 -59 -24 -17 -108 -17 -143 1 -36 19 -51 55 -51 120
0 57 23 99 64 117 22 9 131 7 141 -3z m132 -68 c-3 -44 -4 -80 -2 -80 1 0 26
36 55 80 l53 80 48 0 49 0 0 -130 0 -130 -40 0 -40 0 0 83 0 82 -53 -82 -52
-83 -47 0 -48 0 0 130 0 130 41 0 42 0 -6 -80z m345 23 l3 -58 45 58 c42 54
47 57 88 57 l44 0 -51 -61 c-44 -52 -50 -64 -39 -78 7 -9 32 -40 57 -68 l43
-53 -45 0 c-43 0 -47 3 -94 60 l-48 60 -3 -60 -3 -60 -39 0 -40 0 0 130 0 130
40 0 39 0 3 -57z m-2052 -73 l0 -30 -65 0 -65 0 0 30 0 30 65 0 65 0 0 -30z"/>
<path d="M2667 774 c-31 -17 -36 -56 -11 -92 32 -46 84 -19 84 45 0 51 -29 69
-73 47z"/>
<path d="M2356 778 c-32 -46 -8 -118 39 -118 14 0 29 8 35 19 14 27 13 94 -2
109 -19 19 -55 14 -72 -10z"/>
<path d="M2963 710 c-27 -11 -31 -45 -7 -54 23 -9 64 20 64 44 0 22 -20 25
-57 10z"/>
</g>
</svg>
